<svg width="182" height="39" viewBox="0 0 182 39" fill="none" xmlns="http://www.w3.org/2000/svg">
<g clip-path="url(#clip0_13_35)">
<g filter="url(#filter0_d_13_35)">
<path d="M53.008 30.28C51.6267 30.28 50.3853 29.972 49.284 29.356C48.1827 28.74 47.3147 27.9 46.68 26.836C46.0453 25.772 45.728 24.5773 45.728 23.252C45.728 21.908 46.0453 20.704 46.68 19.64C47.3147 18.576 48.1827 17.736 49.284 17.12C50.404 16.4853 51.6453 16.168 53.008 16.168C54.072 16.168 55.052 16.364 55.948 16.756C56.844 17.148 57.6187 17.708 58.272 18.436L55.92 20.816C55.5653 20.424 55.136 20.1253 54.632 19.92C54.1467 19.7147 53.6053 19.612 53.008 19.612C52.336 19.612 51.7293 19.7707 51.188 20.088C50.6653 20.3867 50.2453 20.8067 49.928 21.348C49.6293 21.8707 49.48 22.496 49.48 23.224C49.48 23.9333 49.6293 24.568 49.928 25.128C50.2453 25.6693 50.6653 26.0987 51.188 26.416C51.7293 26.7147 52.336 26.864 53.008 26.864C53.624 26.864 54.1747 26.7613 54.66 26.556C55.164 26.332 55.5933 26.0147 55.948 25.604L58.328 27.984C57.6373 28.7307 56.844 29.3 55.948 29.692C55.052 30.084 54.072 30.28 53.008 30.28ZM60.4053 30V16.476H64.0733V30H60.4053ZM64.0733 22.524L62.6453 21.572C62.8133 19.9107 63.2986 18.604 64.1013 17.652C64.9039 16.6813 66.0613 16.196 67.5733 16.196C68.2266 16.196 68.8146 16.308 69.3373 16.532C69.8599 16.7373 70.3359 17.0827 70.7653 17.568L68.4693 20.2C68.2639 19.976 68.0119 19.808 67.7133 19.696C67.4333 19.584 67.1066 19.528 66.7333 19.528C65.9493 19.528 65.3053 19.78 64.8013 20.284C64.3159 20.7693 64.0733 21.516 64.0733 22.524ZM78.1389 30.28C76.7202 30.28 75.4602 29.9813 74.3589 29.384C73.2575 28.768 72.3802 27.928 71.7269 26.864C71.0922 25.8 70.7749 24.5867 70.7749 23.224C70.7749 21.88 71.0829 20.6853 71.6989 19.64C72.3335 18.576 73.1922 17.736 74.2749 17.12C75.3575 16.4853 76.5615 16.168 77.8869 16.168C79.1935 16.168 80.3415 16.4667 81.3309 17.064C82.3389 17.6427 83.1229 18.4453 83.6829 19.472C84.2615 20.48 84.5509 21.628 84.5509 22.916C84.5509 23.1587 84.5322 23.4107 84.4949 23.672C84.4762 23.9147 84.4295 24.1947 84.3549 24.512L72.9869 24.54V21.796L82.6469 21.768L81.1629 22.916C81.1255 22.1133 80.9762 21.4413 80.7149 20.9C80.4722 20.3587 80.1082 19.948 79.6229 19.668C79.1562 19.3693 78.5775 19.22 77.8869 19.22C77.1589 19.22 76.5242 19.388 75.9829 19.724C75.4415 20.0413 75.0215 20.4987 74.7229 21.096C74.4429 21.6747 74.3029 22.3653 74.3029 23.168C74.3029 23.9893 74.4522 24.708 74.7509 25.324C75.0682 25.9213 75.5162 26.388 76.0949 26.724C76.6735 27.0413 77.3455 27.2 78.1109 27.2C78.8015 27.2 79.4269 27.088 79.9869 26.864C80.5469 26.6213 81.0322 26.2667 81.4429 25.8L83.5989 27.956C82.9455 28.7213 82.1429 29.3 81.1909 29.692C80.2575 30.084 79.2402 30.28 78.1389 30.28ZM92.4753 30.28C91.2433 30.28 90.1326 29.972 89.1433 29.356C88.154 28.74 87.3793 27.9 86.8193 26.836C86.2593 25.772 85.9793 24.5773 85.9793 23.252C85.9793 21.908 86.2593 20.704 86.8193 19.64C87.3793 18.576 88.154 17.736 89.1433 17.12C90.1326 16.504 91.2433 16.196 92.4753 16.196C93.446 16.196 94.314 16.392 95.0793 16.784C95.8446 17.176 96.4513 17.7267 96.8993 18.436C97.366 19.1267 97.618 19.9107 97.6553 20.788V25.66C97.618 26.556 97.366 27.3493 96.8993 28.04C96.4513 28.7307 95.8446 29.2813 95.0793 29.692C94.314 30.084 93.446 30.28 92.4753 30.28ZM93.1473 26.892C94.174 26.892 95.0046 26.556 95.6393 25.884C96.274 25.1933 96.5913 24.3067 96.5913 23.224C96.5913 22.5147 96.442 21.8893 96.1433 21.348C95.8633 20.788 95.462 20.3587 94.9393 20.06C94.4353 19.7427 93.838 19.584 93.1473 19.584C92.4753 19.584 91.878 19.7427 91.3553 20.06C90.8513 20.3587 90.45 20.788 90.1513 21.348C89.8713 21.8893 89.7313 22.5147 89.7313 23.224C89.7313 23.952 89.8713 24.596 90.1513 25.156C90.45 25.6973 90.8513 26.1267 91.3553 26.444C91.878 26.7427 92.4753 26.892 93.1473 26.892ZM96.3953 30V26.36L96.9833 23.056L96.3953 19.808V16.476H100.035V30H96.3953ZM105.268 30V10.848H108.936V30H105.268ZM102.104 19.696V16.476H112.1V19.696H102.104ZM114.163 30V16.476H117.859V30H114.163ZM116.011 14.292C115.414 14.292 114.919 14.096 114.527 13.704C114.135 13.2933 113.939 12.7893 113.939 12.192C113.939 11.6133 114.135 11.1187 114.527 10.708C114.919 10.2973 115.414 10.092 116.011 10.092C116.627 10.092 117.122 10.2973 117.495 10.708C117.887 11.1187 118.083 11.6133 118.083 12.192C118.083 12.7893 117.887 13.2933 117.495 13.704C117.122 14.096 116.627 14.292 116.011 14.292ZM125.504 30L119.54 16.476H123.572L127.856 27.62H125.868L130.18 16.476H134.072L128.136 30H125.504ZM141.822 30.28C140.404 30.28 139.144 29.9813 138.042 29.384C136.941 28.768 136.064 27.928 135.41 26.864C134.776 25.8 134.458 24.5867 134.458 23.224C134.458 21.88 134.766 20.6853 135.382 19.64C136.017 18.576 136.876 17.736 137.958 17.12C139.041 16.4853 140.245 16.168 141.57 16.168C142.877 16.168 144.025 16.4667 145.014 17.064C146.022 17.6427 146.806 18.4453 147.366 19.472C147.945 20.48 148.234 21.628 148.234 22.916C148.234 23.1587 148.216 23.4107 148.178 23.672C148.16 23.9147 148.113 24.1947 148.038 24.512L136.67 24.54V21.796L146.33 21.768L144.846 22.916C144.809 22.1133 144.66 21.4413 144.398 20.9C144.156 20.3587 143.792 19.948 143.306 19.668C142.84 19.3693 142.261 19.22 141.57 19.22C140.842 19.22 140.208 19.388 139.666 19.724C139.125 20.0413 138.705 20.4987 138.406 21.096C138.126 21.6747 137.986 22.3653 137.986 23.168C137.986 23.9893 138.136 24.708 138.434 25.324C138.752 25.9213 139.2 26.388 139.778 26.724C140.357 27.0413 141.029 27.2 141.794 27.2C142.485 27.2 143.11 27.088 143.67 26.864C144.23 26.6213 144.716 26.2667 145.126 25.8L147.282 27.956C146.629 28.7213 145.826 29.3 144.874 29.692C143.941 30.084 142.924 30.28 141.822 30.28ZM153.023 30.28C152.351 30.28 151.8 30.056 151.371 29.608C150.942 29.16 150.727 28.6093 150.727 27.956C150.727 27.3027 150.942 26.752 151.371 26.304C151.8 25.856 152.351 25.632 153.023 25.632C153.676 25.632 154.218 25.856 154.647 26.304C155.076 26.752 155.291 27.3027 155.291 27.956C155.291 28.6093 155.076 29.16 154.647 29.608C154.218 30.056 153.676 30.28 153.023 30.28Z" fill="white"/>
<path d="M164.529 30.28C163.334 30.28 162.27 30.028 161.337 29.524C160.422 29.02 159.703 28.32 159.181 27.424C158.658 26.528 158.397 25.492 158.397 24.316V16.476H162.093V24.232C162.093 24.792 162.186 25.2773 162.373 25.688C162.559 26.08 162.839 26.3787 163.213 26.584C163.586 26.7893 164.025 26.892 164.529 26.892C165.294 26.892 165.891 26.6587 166.321 26.192C166.75 25.7253 166.965 25.072 166.965 24.232V16.476H170.633V24.316C170.633 25.5107 170.371 26.556 169.849 27.452C169.345 28.348 168.626 29.048 167.693 29.552C166.778 30.0373 165.723 30.28 164.529 30.28ZM173.554 30V16.476H177.25V30H173.554ZM175.402 14.292C174.804 14.292 174.31 14.096 173.918 13.704C173.526 13.2933 173.33 12.7893 173.33 12.192C173.33 11.6133 173.526 11.1187 173.918 10.708C174.31 10.2973 174.804 10.092 175.402 10.092C176.018 10.092 176.512 10.2973 176.886 10.708C177.278 11.1187 177.474 11.6133 177.474 12.192C177.474 12.7893 177.278 13.2933 176.886 13.704C176.512 14.096 176.018 14.292 175.402 14.292Z" fill="#1D4ED8"/>
</g>
<path d="M13.2371 0H31.2418L18.0047 19.62H0L13.2371 0Z" fill="#147AFF"/>
<path d="M14.0333 21.4396L8.90625 29.0389H27.765L41.0021 9.41895H27.0832L18.9731 21.4396H14.0333Z" fill="#5044E5"/>
</g>
<defs>
<filter id="filter0_d_13_35" x="41.728" y="10.092" width="139.746" height="28.188" filterUnits="userSpaceOnUse" color-interpolation-filters="sRGB">
<feFlood flood-opacity="0" result="BackgroundImageFix"/>
<feColorMatrix in="SourceAlpha" type="matrix" values="0 0 0 0 0 0 0 0 0 0 0 0 0 0 0 0 0 0 127 0" result="hardAlpha"/>
<feOffset dy="4"/>
<feGaussianBlur stdDeviation="2"/>
<feComposite in2="hardAlpha" operator="out"/>
<feColorMatrix type="matrix" values="0 0 0 0 0 0 0 0 0 0 0 0 0 0 0 0 0 0 0.25 0"/>
<feBlend mode="normal" in2="BackgroundImageFix" result="effect1_dropShadow_13_35"/>
<feBlend mode="normal" in="SourceGraphic" in2="effect1_dropShadow_13_35" result="shape"/>
</filter>
<clipPath id="clip0_13_35">
<rect width="182" height="39" fill="white"/>
</clipPath>
</defs>
</svg>
